<?xml version="1.0" encoding="UTF-8" standalone="no"?>
<!DOCTYPE svg PUBLIC "-//W3C//DTD SVG 1.1//EN"
 "http://www.w3.org/Graphics/SVG/1.1/DTD/svg11.dtd">
<!-- Generated by graphviz version 2.47.3 (20210619.1520)
 -->
<!-- Title: dependencies Pages: 1 -->
<svg width="523pt" height="174pt"
 viewBox="0.00 0.00 523.00 173.80" xmlns="http://www.w3.org/2000/svg" xmlns:xlink="http://www.w3.org/1999/xlink">
<g id="graph0" class="graph" transform="scale(1 1) rotate(0) translate(4 169.8)">
<title>dependencies</title>
<polygon fill="white" stroke="transparent" points="-4,4 -4,-169.8 519,-169.8 519,4 -4,4"/>
<text text-anchor="middle" x="257.5" y="-8.2" font-family="sans-serif" font-size="14.00">dependencies</text>
<g id="clust1" class="cluster">
<title>cluster_AppModule</title>
<polygon fill="none" stroke="black" stroke-dasharray="1,5" points="8,-32.8 8,-157.8 507,-157.8 507,-32.8 8,-32.8"/>
</g>
<g id="clust6" class="cluster">
<title>cluster_AppModule_providers</title>
<polygon fill="none" stroke="black" points="369,-40.8 369,-92.8 499,-92.8 499,-40.8 369,-40.8"/>
</g>
<g id="clust3" class="cluster">
<title>cluster_AppModule_imports</title>
<polygon fill="none" stroke="black" points="16,-40.8 16,-92.8 361,-92.8 361,-40.8 16,-40.8"/>
</g>
<!-- AuthModule -->
<g id="node1" class="node">
<title>AuthModule</title>
<polygon fill="#8dd3c7" stroke="black" points="352.55,-84.8 349.55,-88.8 328.55,-88.8 325.55,-84.8 265.45,-84.8 265.45,-48.8 352.55,-48.8 352.55,-84.8"/>
<text text-anchor="middle" x="309" y="-62.6" font-family="Times,serif" font-size="14.00">AuthModule</text>
</g>
<!-- AppModule -->
<g id="node4" class="node">
<title>AppModule</title>
<polygon fill="#8dd3c7" stroke="black" points="289.66,-149.8 286.66,-153.8 265.66,-153.8 262.66,-149.8 206.34,-149.8 206.34,-113.8 289.66,-113.8 289.66,-149.8"/>
<text text-anchor="middle" x="248" y="-127.6" font-family="Times,serif" font-size="14.00">AppModule</text>
</g>
<!-- AuthModule&#45;&gt;AppModule -->
<g id="edge1" class="edge">
<title>AuthModule&#45;&gt;AppModule</title>
<path fill="none" stroke="black" d="M277.53,-84.91C277.53,-84.91 277.53,-103.79 277.53,-103.79"/>
<polygon fill="black" stroke="black" points="274.03,-103.79 277.53,-113.79 281.03,-103.79 274.03,-103.79"/>
</g>
<!-- FriendshipModule -->
<g id="node2" class="node">
<title>FriendshipModule</title>
<polygon fill="#8dd3c7" stroke="black" points="247.93,-84.8 244.93,-88.8 223.93,-88.8 220.93,-84.8 128.07,-84.8 128.07,-48.8 247.93,-48.8 247.93,-84.8"/>
<text text-anchor="middle" x="188" y="-62.6" font-family="Times,serif" font-size="14.00">FriendshipModule</text>
</g>
<!-- FriendshipModule&#45;&gt;AppModule -->
<g id="edge2" class="edge">
<title>FriendshipModule&#45;&gt;AppModule</title>
<path fill="none" stroke="black" d="M226.94,-84.91C226.94,-84.91 226.94,-103.79 226.94,-103.79"/>
<polygon fill="black" stroke="black" points="223.44,-103.79 226.94,-113.79 230.44,-103.79 223.44,-103.79"/>
</g>
<!-- UserModule -->
<g id="node3" class="node">
<title>UserModule</title>
<polygon fill="#8dd3c7" stroke="black" points="109.98,-84.8 106.98,-88.8 85.98,-88.8 82.98,-84.8 24.02,-84.8 24.02,-48.8 109.98,-48.8 109.98,-84.8"/>
<text text-anchor="middle" x="67" y="-62.6" font-family="Times,serif" font-size="14.00">UserModule</text>
</g>
<!-- UserModule&#45;&gt;AppModule -->
<g id="edge3" class="edge">
<title>UserModule&#45;&gt;AppModule</title>
<path fill="none" stroke="black" d="M67,-84.91C67,-104.14 67,-131.8 67,-131.8 67,-131.8 196.02,-131.8 196.02,-131.8"/>
<polygon fill="black" stroke="black" points="196.02,-135.3 206.02,-131.8 196.02,-128.3 196.02,-135.3"/>
</g>
<!-- AppService -->
<g id="node5" class="node">
<title>AppService</title>
<ellipse fill="#fdb462" stroke="black" cx="434" cy="-66.8" rx="56.74" ry="18"/>
<text text-anchor="middle" x="434" y="-62.6" font-family="Times,serif" font-size="14.00">AppService</text>
</g>
<!-- AppService&#45;&gt;AppModule -->
<g id="edge4" class="edge">
<title>AppService&#45;&gt;AppModule</title>
<path fill="none" stroke="black" d="M434,-84.91C434,-104.14 434,-131.8 434,-131.8 434,-131.8 299.74,-131.8 299.74,-131.8"/>
<polygon fill="black" stroke="black" points="299.74,-128.3 289.74,-131.8 299.74,-135.3 299.74,-128.3"/>
</g>
</g>
</svg>
